<svg xmlns="http://www.w3.org/2000/svg" xmlns:xlink="http://www.w3.org/1999/xlink">
  <symbol id="edge" width="35" height="43" viewBox="0 0 35 43" fill="none" xmlns="http://www.w3.org/2000/svg">
    <path d="M0.500006 19.3801C0.500007 9.25022 8.14383 1.09961 17.5 1.09962C26.8562 1.09962 34.5 9.25023 34.5 19.3801C34.5 24.4532 32.5791 30.1591 29.4652 34.592C26.3452 39.0337 22.1024 42.0996 17.5 42.0996C12.8976 42.0996 8.65481 39.0337 5.53478 34.592C2.42093 30.1591 0.500005 24.4532 0.500006 19.3801Z" stroke="white"/>
    <path d="M1 20H4.5C5.05228 20 5.5 20.4477 5.5 21V21.5C5.5 22.0523 5.94772 22.5 6.5 22.5H9.5C10.0523 22.5 10.5 22.0523 10.5 21.5V21C10.5 20.4477 10.9477 20 11.5 20H19.5C20.0523 20 20.5017 20.4479 20.4915 21C20.4657 22.3987 20.3761 23.6384 20.1556 25.3568C20.0782 25.9604 20.5445 26.5 21.153 26.5C23.5218 26.5 25.8799 26.5 27.2803 26.5C27.7108 26.5 28.094 26.2257 28.2094 25.811C28.5652 24.5326 28.8839 22.8013 28.9744 20.9996C29.0021 20.4481 29.4478 20 30.0001 20C32.2809 20 33.9156 20 34.5 20" stroke="white"/>
  </symbol>
  <symbol id="arrow" viewBox="0 0 16 10" fill="none" xmlns="http://www.w3.org/2000/svg">
    <path d="M0.96875 1.27344L8.24219 8.54687L15.5156 1.27344" stroke="white"/>
  </symbol>
  <symbol id="telegram" width="31" height="31" viewBox="0 0 31 31" fill="none" xmlns="http://www.w3.org/2000/svg">
    <path d="M31.0016 15.4998C31.0016 19.6106 29.3686 23.5531 26.4618 26.4599C23.555 29.3667 19.6126 30.9997 15.5018 30.9997C11.391 30.9997 7.44853 29.3667 4.54175 26.4599C1.63497 23.5531 0.00195313 19.6106 0.00195312 15.4998C0.00195313 11.389 1.63497 7.44658 4.54175 4.5398C7.44853 1.63301 11.391 0 15.5018 0C19.6126 0 23.555 1.63301 26.4618 4.5398C29.3686 7.44658 31.0016 11.389 31.0016 15.4998ZM16.0578 11.4428C14.5505 12.0705 11.5358 13.3686 7.01757 15.3371C6.2852 15.6277 5.89964 15.9145 5.86477 16.1935C5.80664 16.6643 6.39757 16.8503 7.20163 17.1041L7.54069 17.2106C8.33118 17.4683 9.39679 17.7686 9.94897 17.7802C10.4527 17.7919 11.0126 17.5865 11.6307 17.1603C15.8525 14.3102 18.0321 12.8707 18.1678 12.8397C18.2646 12.8164 18.4003 12.7893 18.4894 12.8707C18.5804 12.9501 18.5708 13.1032 18.5611 13.1439C18.5029 13.3938 16.1838 15.5483 14.9845 16.6643C14.6105 17.013 14.3451 17.2591 14.2909 17.3153C14.1714 17.4373 14.05 17.5575 13.9266 17.6756C13.1904 18.3847 12.6401 18.9156 13.9557 19.7836C14.5892 20.2021 15.0969 20.545 15.6025 20.8899C16.1528 21.2658 16.703 21.6397 17.416 22.1086C17.5962 22.2248 17.7706 22.3508 17.9391 22.4709C18.5804 22.9281 19.1597 23.3389 19.8708 23.273C20.2854 23.2343 20.7136 22.8468 20.9306 21.6843C21.444 18.9389 22.4535 12.9927 22.686 10.5418C22.7001 10.3381 22.6917 10.1334 22.6608 9.93152C22.6425 9.76862 22.5637 9.61854 22.4399 9.51109C22.2636 9.38939 22.0534 9.32634 21.8393 9.3309C21.258 9.34059 20.361 9.65252 16.0578 11.4428Z" fill="white"/>
  </symbol>
  <symbol id="discord" width="35" height="27" viewBox="0 0 35 27" fill="none" xmlns="http://www.w3.org/2000/svg">
    <path d="M29.3496 2.72558C27.1539 1.73534 24.8002 1.00343 22.339 0.587242C22.3171 0.583034 22.2944 0.585745 22.2741 0.595002C22.2538 0.604258 22.2368 0.619601 22.2256 0.638906C21.9242 1.16847 21.5884 1.85877 21.3531 2.40411C18.7427 2.0141 16.0889 2.0141 13.4785 2.40411C13.2164 1.79972 12.9207 1.21041 12.593 0.638906C12.5819 0.619364 12.5651 0.603674 12.5449 0.59393C12.5246 0.584186 12.5019 0.580851 12.4797 0.584371C10.0199 1.00056 7.66624 1.73247 5.46906 2.72415C5.45016 2.73208 5.43413 2.7456 5.42314 2.7629C0.957019 9.32861 -0.267145 15.7322 0.334174 22.0553C0.335847 22.0708 0.340654 22.0858 0.348302 22.0994C0.355951 22.1129 0.36628 22.1248 0.378663 22.1343C2.98542 24.0321 5.89291 25.4778 8.97939 26.4109C9.0009 26.4176 9.02392 26.4175 9.04542 26.4109C9.06693 26.4042 9.08593 26.3912 9.09994 26.3736C9.76297 25.4838 10.3542 24.5438 10.8594 23.5565C10.8895 23.4991 10.8608 23.4302 10.8006 23.4072C9.87348 23.0581 8.9752 22.6368 8.114 22.1472C8.09853 22.1383 8.08549 22.1258 8.07606 22.1107C8.06662 22.0956 8.06109 22.0784 8.05995 22.0606C8.05881 22.0428 8.0621 22.025 8.06954 22.0088C8.07697 21.9926 8.0883 21.9785 8.10252 21.9678C8.28335 21.8343 8.46418 21.6951 8.63639 21.5559C8.65189 21.5434 8.67057 21.5354 8.69033 21.5329C8.71009 21.5303 8.73017 21.5333 8.74833 21.5416C14.3841 24.0731 20.4877 24.0731 26.0574 21.5416C26.0756 21.5329 26.0959 21.5295 26.116 21.5317C26.136 21.534 26.155 21.5419 26.1708 21.5545C26.343 21.6951 26.5224 21.8343 26.7047 21.9678C26.719 21.9783 26.7305 21.9922 26.7382 22.0083C26.7459 22.0243 26.7494 22.042 26.7486 22.0598C26.7477 22.0776 26.7425 22.0949 26.7333 22.1101C26.7242 22.1253 26.7113 22.1381 26.696 22.1472C25.8378 22.6409 24.9452 23.0585 24.008 23.4058C23.9937 23.411 23.9805 23.4192 23.9696 23.4299C23.9586 23.4406 23.9501 23.4535 23.9445 23.4678C23.9389 23.4821 23.9365 23.4974 23.9373 23.5126C23.9381 23.5279 23.9422 23.5429 23.9492 23.5565C24.4659 24.5424 25.0571 25.481 25.7072 26.3722C25.7208 26.3905 25.7396 26.4042 25.7612 26.4113C25.7827 26.4185 25.806 26.4189 25.8278 26.4124C28.9196 25.4819 31.8318 24.0355 34.4414 22.1343C34.4542 22.1254 34.4649 22.1138 34.4728 22.1005C34.4807 22.0871 34.4857 22.0722 34.4874 22.0568C35.2049 14.7462 33.2847 8.39434 29.3941 2.76577C29.3845 2.74748 29.3688 2.73322 29.3496 2.72558ZM11.7018 18.2049C10.0055 18.2049 8.60625 16.6707 8.60625 14.7893C8.60625 12.9064 9.97824 11.3737 11.7018 11.3737C13.4383 11.3737 14.8247 12.9193 14.7974 14.7893C14.7974 16.6722 13.4254 18.2049 11.7018 18.2049ZM23.147 18.2049C21.4492 18.2049 20.0514 16.6707 20.0514 14.7893C20.0514 12.9064 21.4219 11.3737 23.147 11.3737C24.8835 11.3737 26.2698 12.9193 26.2425 14.7893C26.2425 16.6722 24.8849 18.2049 23.147 18.2049Z" fill="white"/>
  </symbol>
  <symbol id="part-circle" width="70" height="728" viewBox="0 0 70 728" fill="none" xmlns="http://www.w3.org/2000/svg">
    <g filter="url(#filter0_d_1914_366)">
      <path d="M40.5938 1C56.6348 92.2527 65.0005 186.149 65.0005 282C65.0005 433.635 44.064 580.379 4.92383 719.5" stroke="url(#paint0_linear_1914_366)" stroke-opacity="0.5" shape-rendering="crispEdges"/>
    </g>
    <defs>
      <filter id="filter0_d_1914_366" x="0.442383" y="0.913086" width="69.0576" height="726.723" filterUnits="userSpaceOnUse" color-interpolation-filters="sRGB">
        <feFlood flood-opacity="0" result="BackgroundImageFix"/>
        <feColorMatrix in="SourceAlpha" type="matrix" values="0 0 0 0 0 0 0 0 0 0 0 0 0 0 0 0 0 0 127 0" result="hardAlpha"/>
        <feOffset dy="4"/>
        <feGaussianBlur stdDeviation="2"/>
        <feComposite in2="hardAlpha" operator="out"/>
        <feColorMatrix type="matrix" values="0 0 0 0 0 0 0 0 0 0 0 0 0 0 0 0 0 0 0.25 0"/>
        <feBlend mode="normal" in2="BackgroundImageFix" result="effect1_dropShadow_1914_366"/>
        <feBlend mode="normal" in="SourceGraphic" in2="effect1_dropShadow_1914_366" result="shape"/>
      </filter>
      <linearGradient id="paint0_linear_1914_366" x1="34.9622" y1="1" x2="34.9622" y2="719.5" gradientUnits="userSpaceOnUse">
        <stop stop-color="white" stop-opacity="0"/>
        <stop offset="0.238157" stop-color="white"/>
        <stop offset="0.753794" stop-color="white" stop-opacity="0.87244"/>
        <stop offset="1" stop-color="white" stop-opacity="0"/>
      </linearGradient>
    </defs>
  </symbol>
</svg>